<svg xmlns="http://www.w3.org/2000/svg" viewBox="0 0 500 500" enable-background="new 0 0 500 500"><style type="text/css">.st0{fill:#684C46;} .st1{fill:#F5DCBA;} .st2{fill:#0788BF;} .st3{fill:#46B8E3;} .st4{fill:#FFD14F;} .st5{fill:#122030;} .st6{fill:#FFFFFF;} .st7{fill:#EABE8D;} .st8{fill:#9C7356;}</style><g id="Freddie-logo-RGB"><path id="Brown" class="st0" d="M480.499 356.866c-.388 1.269-37.047 142.176-181.083 142.133-124.51-.037-183.526-108.263-183.526-108.263-9.075.506-17.831-.935-25.906-3.902-36.53-13.421-54.057-55.212-41.454-90.274l-20.077-15.343c-77.772-59.245 142.542-330.351 220.449-269.006.394.31 18.598 14.962 18.598 14.962 27.972-16.987 55.675-26.17 78.195-26.171 15.992-.001 29.367 4.628 38.374 14.381 20.221 21.894 12.953 63.703-14.658 106.032 5.939 5.638 10.861 13.301 14.374 20.908 8.778 6.774 14.468 17.07 17.295 31.292 3.148 15.813 3.801 38.337 5.777 48.015 7.446 3.361 4.274 1.806 12.213 5.771 8.278 4.137 18.358 9.175 29.498 19.894 19.801 4.961 27.362 26.013 15.776 40.381-.311.386-1.71 2.043-3.158 3.692.346.912 4.144 7.066 6.884 19.592 8.205 1.938 14.741 6.99 18.171 14.315 5.932 14.339-5.74 31.59-5.74 31.59zm-57.098 106.414v5.898h2.258v-5.898h2.31v-1.861h-6.849v1.861h2.281zm5.26-1.861v7.759h2.06v-5.602l1.683 5.602h1.757l1.683-5.617v5.617h2.06v-7.759h-3.221l-1.391 4.465-1.411-4.465h-3.219z"/><path id="Light-Tan" class="st1" d="M145.272 303.843c3.137-7.973 4.718-14.517 4.718-14.517 3.591 10.978 5.428 22.524 4.707 34.195 2.977-3.961 6.173-11.421 6.173-11.421 5.538 32.602-18.253 62.445-49.598 62.445-27.829 0-50.388-23.749-50.388-53.045 0-29.296 22.559-53.045 50.388-53.045 7.214 0 14.074 1.596 20.278 4.471 0-.001 10.71 5.4 13.722 30.918zm274.191 114.965c39.061-30.692 45.886-67.656 46.537-68.93 9.611-11.528 6.998-22.885-5.699-22.886-4.04 0-7.092 1.066-7.092 1.066s.047-16.822-7.734-29.923c-5.998 6.746-22.648 20.11-44.496 30.482-20.487 9.726-47.825 18.245-81.703 19.373h-.001c-9.486.412-15.354-1.132-18.658 9.927-1.055 3.907-.599 9.712.195 11.389 2.673 9.16 9.654 13.197 18.845 15.335 6.969 1.623 14.37 1.776 14.37 1.776 68.707 1.927 123.878-51.659 124.538-52.105.638-.523 1.166-1.142 1.166-1.142s-.606 1.421-.679 1.582c-9.923 22.317-67.382 62.788-124.574 61.629l-.187.066c-13.264-.05-29.38-3.464-37.757-13.853-13.255-16.437-6.376-43.768 14.75-44.409.027-.001 4.884-.113 7.046-.168 52.309-1.607 99.244-20.826 132.851-60.958 4.621-5.74-.541-13.626-10.556-13.866-.087-.002-.173-.04-.232-.104-11.875-12.713-22.312-17.205-31.599-21.925-19.468-9.917-17.636-1.351-22.164-49.456-1.225-12.969-3.681-30.656-15.075-37.437-2.987-1.778-6.251-2.541-9.639-2.541-3.349 0-4.981.684-5.639.83-6.24 1.383-9.789 4.92-14.234 9.019-21.006 19.371-37.796 14.112-62.856 13.89-23.536-.206-44.316 16.212-48.291 41.425l-.006.014c-1.932 13.198-.682 26.608 1.387 32.636 0 0-6.388-4.249-9.432-8.011 3.685 23.033 24.698 38.087 24.698 38.087-3.31.761-8.071.445-8.071.445.02.017 11.994 9.487 22.387 12.791-2.707 1.685-16.406 15.203-23.471 33.812-6.611 17.415-3.918 38.322-3.918 38.322l5.741-8.559s-3.75 19.075 3.508 37.548c2.408-5.495 7.669-15.305 7.669-15.305s-.834 20.485 9.028 37.258c.254-3.871 1.733-13.726 1.733-13.726s5.659 17.488 18.732 29.716c24.472 21.716 89.269 25.639 138.585-13.114z"/><path id="Blue" class="st2" d="M56.074 281.635c-.198-.053-18.961-13.822-21.629-18.356-15.786-26.64 11.678-81.356 31.221-112.458 48.299-76.867 128.69-137.528 165.203-128.865l37.496 19.355c-14.559 8.564-28.64 19.083-37.076 26.078l-7.978 6.692s-23.3 15.686-34.889 25.576c-46.454 39.639-92.193 101.003-109.155 160.236 0-.002-13.936 6.916-23.194 21.742z"/><path id="Light-Blue" class="st3" d="M230.87 21.955c-36.514-8.663-116.905 51.998-165.203 128.865l-.042.067.195.021 38.485 30.298c42.256-67.075 95.365-101.661 96.863-102.678l-6.102-41.053 11.431-5.473 22.941 7.429-1.755-7.664 3.187-9.812z"/><path id="Gold" class="st4" d="M268.366 41.31l-37.076 26.078-2.594 2.029-32.877-26.861-.755-5.08 11.431-5.473 22.941 7.429.382-14.243 1.05-3.233 10.042-3.849c.014.011 27.416 23.169 27.455 23.202z"/><g id="Navy"><path class="st5" d="M341.528 15.734c-24.519 0-52.046 12.895-73.163 25.575-2.962 1.743-5.901 3.567-8.781 5.426l-11.049-9.262 4.014 13.947c-1.517 1.042-2.999 2.081-4.448 3.114l-22.83-6.971 15.106 12.645c-3.449 2.614-6.53 5.061-9.086 7.181l-36.226-29.912 1.917 13.406 26.33 23.198s-23.3 15.686-34.889 25.576c-46.454 39.639-92.193 101.003-109.155 160.236l.964-.542.394-.205c.472-.255.943-.496 1.415-.734l.906-.452c.486-.233.971-.449 1.457-.664l.861-.379c.526-.22 1.051-.421 1.578-.62l.729-.279c.766-.275 1.53-.528 2.29-.755 11.532-3.44 27.221-5.652 45.587 2.147 9.224-23.263 20.242-46.931 37.607-69.673 14.08-18.44 27.614-34.902 43.859-43.956 30.758-28.894 113.659-59.533 140.218-32.975 6.28-10.274 11.73-19.998 16.22-32.19 11.082-29.317 11.285-62.883-31.824-62.883zM236.291 41.65l-5.421-19.695-3.188 9.812 1.908 7.713z"/></g><path id="White" class="st6" d="M453.21 328.039s.047-16.822-7.734-29.923c-5.998 6.746-22.648 20.11-44.496 30.482-20.487 9.726-47.825 18.245-81.703 19.373h-.001c-9.486.412-15.354-1.132-18.658 9.927-.258.953-.425 2.021-.52 3.113l-.004.112-.004-.001c-.029.353-.05.707-.065 1.061-.033 1.011-.022 1.901.017 2.678l.003.056.01.169c.03.486.071.952.122 1.39l.007.066.009.069c.224 1.757.572 2.572.615 2.666l.004.011.044.147c2.705 9.055 9.66 13.062 18.801 15.188 6.969 1.623 14.371 1.776 14.371 1.776 56.059 1.572 103.108-33.812 118.888-47.134.27-3.734.429-6.397.295-11.225zm-161.045-299.452c13.392-6.174 27.746-11.053 41.512-12.459-13.673 3.076-30.334 10.165-50.073 22.245-.481.278-46.709 31.478-74.952 59.493-15.391 15.267-77.197 89.382-77.148 89.319 11.295-21.377 18.737-31.87 36.619-54.359 10.113-12.719 20.905-25.088 31.952-36.509 3.713-3.839 7.456-7.57 11.211-11.173 1.432-1.373 33.729-34.445 80.879-56.557z"/><path id="Medium-Tan" class="st7" d="M419.463 418.807c-6.706 5.269-13.696 9.747-20.833 13.5-16.505-6.273-26.633-19.638-26.633-19.638s14.15-3.346 33.065-12.965c23.005-11.69 44.504-28.578 60.94-49.828-.652 1.274-7.477 38.239-46.538 68.931zm-44.92-178.181c-7.984-5.678-21.206-1.159-24.122 8.237 4.62.233 9.522 3.728 9.219 8.2 3.262-3.157 7.9-4.939 12.412-4.856-2.176-3.49-1.077-9.506 2.49-11.581zm-83.764 114.663c2.515-9.36 9.618-16.775 20.503-17.105.027-.001 4.884-.113 7.046-.168 52.309-1.607 99.244-20.826 132.851-60.958 4.621-5.74-.541-13.626-10.556-13.866h-.143c-1.694 1.791-1.997 5.062-4.799 9.95-10.222 17.759-24.36 25.879-43.213 35.302-57.801 28.777-87.775 15.387-99.805 33.005-3.496 5.185-3.562 10.977-1.884 13.839zm104.587-120.69c-5.528-3.967-5.725-10.886-8.739-42.892-.964-10.208-2.693-23.338-8.94-31.773-1.292-1.129-3.108-2.425-5.724-2.425-3.947-.175-8.408 3.915-10.936 6.709-7.178 10.36-14.036 17.032-26.166 22.814-12.277 5.556-23.943 7.572-36.055 7.189-8.866-.28-16.63-1.741-24.241-1.837-14.102-.221-26.325 4.35-35.233 15.599-6.109 7.714-8.561 15.869-9.343 25.576.03 1.17.082 2.273.149 3.312.105 1.542.246 3.015.417 4.396.622 4.919 1.509 7.471 1.509 7.471l-.017.111.225.695s-6.388-4.249-9.432-8.011c3.072 19.201 18.185 32.857 23.129 36.869l.862.669.064.065.643.485c-3.31.761-8.071.445-8.071.445.02.017 11.994 9.487 22.388 12.791 13.788-11.652 29.421-16.125 42.254-17.513 7.778-4.826 16.141-9.568 25.121-14.14-2.719-16.933 12.297-33.983 31.193-35.621 14.258-1.039 21.194 5.353 26.189 12.187 2.711-.865 5.768-1.811 9.184-2.816-.144-.096-.288-.214-.427-.353zm6.821 114.04c-.144.003-.293.035-.53.088-5.697 1.32-64.435 24.074-101.567 12.411-.166 2.031-.113 6.301.719 8.156l.004.011c5.617 1.126 12.726 1.846 20.977 1.846 48.862 0 84.075-22.216 80.397-22.512zm-273.36-4.562l.042-.029c2.975-3.198 4.224-7.666 3.516-11.94-1.098-6.149-8.066-7.391-12.673-12.167l-.217-.23-.227-.254-.015-.017c-2.07-2.384-2.791-5.095-2.623-7.514.364-6.29 5.95-8.058 8.857-6.9 0 0 3.448.816 6.119 4.541l-.002-.015c-.406-1.229-.323-3.215-2.413-6.174-3.425-4.852-11.291-9.787-22.443-7.424h.002c-2.061.437-.906.189-2.94.762-.317.089-.607.178-.857.282-.639.299-1.23.505-1.797.806-.294.164-1.97.924-3.986 2.443-12.535 16.181 8.695 45.524 31.657 43.83z"/><path id="Medium-Brown" class="st8" d="M313.644 244.488c1.058 1.547 1.341 2.715.914 3.201-.852.996-3.898-.349-8.394-2.101-11.509-4.294-19.988-4.948-34.996.734-3.795 1.448-6.486 2.566-7.777 2.373-2.105-.313-.067-4.166 4.534-7.904 9.256-7.384 21.968-9.675 32.831-5.633 4.755 1.75 10.095 5.243 12.889 9.329zm-2.281 11.772c-3.155-2.41-8.965-4.025-14.997-3.001-1.265.193-2.435.585-3.586.894-.422.104-.826.254-1.219.419-2.494 1.05-4.653 2.183-6.748 4.191-2.403 2.323-3.086 4.48-2.391 5.011.683.545 2.347-.262 4.918-1.302 8.613-3.581 14.708-3.676 20.516-3.271 2.8.189 4.675.357 5.11-.406.307-.518-.25-1.502-1.603-2.534zm-185.486 44.176l.002.002.003.002c1.414 1.124 2.498 2.323 3.306 3.469 2.649 3.751 1.807 5.939 2.893 7.003.392.385.952.506 1.512.278 1.502-.62 2.24-3.009 2.381-4.676l.001-.011c.377-4.008-1.742-8.513-4.549-11.706l-.007-.009c-1.718-1.996-3.98-3.856-6.67-5.355-2.695-1.501-5.821-2.639-9.26-3.171-5.941-.925-11.784.259-13.416.746l.009-.002c-.842.244-1.881.463-2.775.814-9.689 3.778-16.065 10.715-18.902 19.901l-.001.003-.001.004c-1.049 3.497-1.467 6.874-1.467 9.993 0 2.689.31 5.188.794 7.415v.002l.001.003-.001-.003c.82 3.746 2.497 7.966 5.113 10.735l.009.009c3.271 3.535 6.857 2.859 5.326-.43-.365-.911-2.341-4.635-2.608-11.375-.173-4.411.432-9.002 2.052-13.192.896-2.267 2.124-4.472 3.722-6.454 3.293-4.029 7.339-5.832 7.812-6.095.567-.301 1.158-.507 1.797-.806.249-.104.539-.193.857-.282 2.033-.573.88-.325 2.94-.762h-.002c7.753-1.644 14.424.153 19.131 3.95zm-1.654 14.969c-1.071-.848-1.568-1.572-1.863-2.686-.438-2.03-.21-3.209 1.525-4.428 1.336-.915 2.412-1.356 2.415-1.931.061-1.088-4.409-2.208-7.533.868-2.595 2.764-3.414 8.526.725 13.017 4.608 4.972 11.774 6.145 12.89 12.397.147.886.256 1.873.179 2.846.016 1.118-.358 2.727-.376 2.828-1.386 6.039-7.117 11.801-16.567 10.333-1.741-.254-2.869-.468-3.205.014-.729 1.014 3.321 5.648 10.735 5.479 7.254-.153 14.451-5.585 16.757-13.748.027-.107.707-2.42.764-4.494.13-1.536.019-3.116-.267-4.769-1.89-10.482-12.305-12.636-16.178-15.726zm252.808-74.834c-2.866-.447-5.687 2.376-6.301 6.308-.614 3.931 1.213 7.48 4.08 7.927 2.866.447 5.687-2.376 6.301-6.308.614-3.931-1.213-7.48-4.08-7.927zm-31.496 11.467c-1.575 2.875.343 6.958 4.286 9.118 3.942 2.16 8.416 1.582 9.992-1.294 1.575-2.875-.343-6.958-4.286-9.118-3.943-2.16-8.416-1.581-9.992 1.294zm-115.396-116.302c54.243-35.157 108.424-39.2 126.988-24.927l.003-.005c-.034-.094-.332-.917-.448-1.143-4.714-10.015-15.711-17.002-25.507-19.804 1.718 1.785 4.204 5.053 5.21 6.995-7.394-5.078-17.218-9.551-27.472-11.676 0 0 1.222.878 1.431 1.073 2.044 1.904 4.764 4.912 5.877 7.495-9.8-3.935-22.188-6.14-32.794-4.098-.148.029-1.325.307-1.325.307s1.38.343 1.687.435c3.517 1.043 8.535 3.186 10.747 6.123-17.604-3.097-36.969.33-47.414 6.171 1.343-.056 1.33-.062 2.466-.032 3.842.102 11.582.624 14.832 2.692-11.104 2.258-27.173 7.225-35.824 14.665 1.528-.178 10.195-1.283 13.742-.713-47.615 27.247-69.285 68.441-69.285 68.441 14.038-18.293 32.25-35.9 57.087-51.997z"/><path id="Brown-Eye" class="st0" d="M358.115 212.547c-.074-3.738.518-9.915 4.037-11.063l.007-.002c6.015-2.087 13.979 13.317 14.345 26.995-4.753-2.38-10.339-3.389-16.083-2.892-1.444-4.403-2.136-8.55-2.307-13.037z"/></g></svg>